# xmcd CD database file
# Copyright (C) 1997 Ti Kan
# 
# Track frame offsets:
#     150
#     11359
#     25440
#     48412
#     59267
#     71027
#     86172
#     100747
#     108987
#     120185
#     148462
#     162967
#     174572
#     185170
#     190380
#     201367
#     209812
# 
# Disc length: 2960 seconds
# 
# Revision: 1
# Processed by: cddbd v1.4b41PL1 Copyright (c) Steve Scherf et al.
# Submitted via: DiscPlay 4.0.4
# 
DISCID=020b8e11
DTITLE=Fats Domino - Be My Guest
DYEAR=1900
DGENRE=
TTITLE0=The Fat Man
TTITLE1=Blueberry Hill
TTITLE2=Domino Twist
TTITLE3=What a Price
TTITLE4=Let The Four Winds Blow
TTITLE5=Jambalaya (on the Bayou)
TTITLE6=Medley: I'm in Love Again/ Honey Chile
TTITLE7=Red Sails in the Sunset
TTITLE8=Ain't That a Shame
TTITLE9=Medley: So Long/ Natural Born Lover/ C.C. Rider
TTITLE10=I'm in teh Mood for Love
TTITLE11=I Want to Walk You Home
TTITLE12=I'm Gonna Be a Wheel Someday
TTITLE13=Whole Lotta Loving
TTITLE14=Blue Monday
TTITLE15=Be My Guest
TTITLE16=Goin' Home
EXTD=
EXTT0=
EXTT1=
EXTT2=
EXTT3=
EXTT4=
EXTT5=
EXTT6=
EXTT7=
EXTT8=
EXTT9=
EXTT10=
EXTT11=
EXTT12=
EXTT13=
EXTT14=
EXTT15=
EXTT16=
PLAYORDER=
